<?xml version="1.0" encoding="utf-8"?>
<!-- Generator: Adobe Illustrator 23.0.4, SVG Export Plug-In . SVG Version: 6.00 Build 0)  -->
<svg version="1.1" id="Layer_1" xmlns="http://www.w3.org/2000/svg" xmlns:xlink="http://www.w3.org/1999/xlink" x="0px" y="0px"
	 viewBox="0 0 250 283.46" style="enable-background:new 0 0 250 283.46;" xml:space="preserve">
<style type="text/css">
	.st0{clip-path:url(#SVGID_2_);}
	.st1{opacity:0.75;clip-path:url(#SVGID_4_);}
	.st2{clip-path:url(#SVGID_6_);}
	.st3{fill:#FFFFFF;}
	.st4{clip-path:url(#SVGID_8_);}
	.st5{opacity:0.55;clip-path:url(#SVGID_4_);}
	.st6{clip-path:url(#SVGID_10_);fill:#FFFFFF;}
	.st7{clip-path:url(#SVGID_12_);fill:#FFFFFF;}
</style>
<g>
	<defs>
		<rect id="SVGID_1_" x="-253" y="29.05" width="756.72" height="225.42"/>
	</defs>
	<clipPath id="SVGID_2_">
		<use xlink:href="#SVGID_1_"  style="overflow:visible;"/>
	</clipPath>
	<g class="st0">
		<defs>
			<rect id="SVGID_3_" x="-253" y="29.05" width="756.72" height="225.42"/>
		</defs>
		<clipPath id="SVGID_4_">
			<use xlink:href="#SVGID_3_"  style="overflow:visible;"/>
		</clipPath>
		<g class="st1">
			<g>
				<defs>
					<rect id="SVGID_5_" x="-99.64" y="214.21" width="450" height="40.26"/>
				</defs>
				<clipPath id="SVGID_6_">
					<use xlink:href="#SVGID_5_"  style="overflow:visible;"/>
				</clipPath>
				<g class="st2">
					<path class="st3" d="M37.45,235.38v-8.79l-3.9,6.8h-0.62l-3.9-6.8v8.79h-1.05v-10.7h1.08l4.18,7.33l4.21-7.33h1.07v10.7H37.45z
						"/>
					<path class="st3" d="M52.3,234.44v0.93h-7.19v-10.7h7.05v0.93h-6v3.86h5.23v0.89h-5.23v4.08H52.3z"/>
					<path class="st3" d="M58.21,235.38v-10.7h3.63c0.85,0,1.6,0.14,2.24,0.42c0.64,0.28,1.17,0.66,1.6,1.15s0.75,1.05,0.96,1.7
						c0.22,0.65,0.32,1.34,0.32,2.07c0,0.81-0.12,1.55-0.36,2.21c-0.24,0.66-0.59,1.22-1.03,1.69c-0.45,0.47-0.98,0.83-1.61,1.08
						c-0.63,0.26-1.33,0.38-2.12,0.38H58.21z M65.91,230.01c0-0.64-0.09-1.23-0.27-1.77c-0.18-0.54-0.45-1-0.79-1.39
						c-0.35-0.39-0.77-0.7-1.27-0.91c-0.5-0.22-1.08-0.32-1.73-0.32h-2.58v8.83h2.58c0.66,0,1.25-0.11,1.76-0.34
						c0.51-0.23,0.93-0.54,1.27-0.93c0.34-0.4,0.6-0.86,0.78-1.4C65.82,231.23,65.91,230.64,65.91,230.01z"/>
					<path class="st3" d="M72.89,235.38v-10.7h1.05v10.7H72.89z"/>
					<path class="st3" d="M88.14,225.61h-3.81v9.77h-1.05v-9.77h-3.81v-0.93h8.68V225.61z"/>
					<path class="st3" d="M95.92,224.67h0.89l4.45,10.7h-1.12l-1.39-3.35h-4.81l-1.37,3.35h-1.13L95.92,224.67z M98.51,231.2
						l-2.16-5.29l-2.19,5.29H98.51z"/>
					<path class="st3" d="M113.24,225.61h-3.81v9.77h-1.05v-9.77h-3.81v-0.93h8.68V225.61z"/>
					<path class="st3" d="M118.76,235.38v-10.7h1.05v10.7H118.76z"/>
					<path class="st3" d="M130.73,235.45c-0.74,0-1.42-0.15-2.04-0.46c-0.62-0.31-1.15-0.71-1.59-1.22
						c-0.44-0.51-0.78-1.09-1.02-1.74s-0.36-1.32-0.36-2c0-0.71,0.13-1.4,0.38-2.05s0.61-1.23,1.06-1.73s0.99-0.9,1.6-1.2
						c0.61-0.3,1.28-0.45,1.99-0.45c0.74,0,1.42,0.16,2.04,0.48c0.62,0.32,1.15,0.73,1.58,1.24c0.44,0.51,0.78,1.09,1.02,1.74
						s0.36,1.31,0.36,1.98c0,0.71-0.13,1.4-0.38,2.05s-0.61,1.23-1.06,1.73c-0.45,0.5-0.98,0.89-1.59,1.19
						C132.1,235.3,131.44,235.45,130.73,235.45z M126.76,230.02c0,0.58,0.09,1.14,0.29,1.68c0.19,0.54,0.46,1.02,0.81,1.43
						c0.35,0.42,0.77,0.75,1.25,1s1.02,0.37,1.61,0.37c0.6,0,1.15-0.13,1.64-0.39c0.49-0.26,0.91-0.6,1.25-1.02s0.61-0.9,0.79-1.43
						c0.19-0.53,0.28-1.08,0.28-1.63c0-0.58-0.1-1.14-0.29-1.68c-0.2-0.54-0.47-1.01-0.82-1.42c-0.35-0.41-0.77-0.74-1.25-0.99
						c-0.48-0.25-1.02-0.37-1.6-0.37c-0.6,0-1.15,0.13-1.64,0.38s-0.91,0.6-1.25,1.02c-0.34,0.42-0.61,0.9-0.79,1.43
						C126.85,228.93,126.76,229.47,126.76,230.02z"/>
					<path class="st3" d="M142.71,226.63v8.74h-1.05v-10.7h0.81l7.08,8.91v-8.89h1.06v10.69h-0.92L142.71,226.63z"/>
					<path class="st3" d="M172.15,225.61h-3.81v9.77h-1.05v-9.77h-3.81v-0.93h8.68V225.61z"/>
					<path class="st3" d="M177.67,235.38v-10.7h1.05v10.7H177.67z"/>
					<path class="st3" d="M194.8,235.38v-8.79l-3.9,6.8h-0.62l-3.9-6.8v8.79h-1.05v-10.7h1.08l4.18,7.33l4.21-7.33h1.07v10.7H194.8z
						"/>
					<path class="st3" d="M209.65,234.44v0.93h-7.19v-10.7h7.05v0.93h-6v3.86h5.23v0.89h-5.23v4.08H209.65z"/>
					<path class="st3" d="M215.56,235.38v-10.7h4.52c0.46,0,0.89,0.1,1.27,0.29c0.39,0.2,0.72,0.45,1,0.77s0.5,0.68,0.66,1.08
						c0.16,0.4,0.23,0.81,0.23,1.22c0,0.39-0.06,0.77-0.17,1.12c-0.12,0.36-0.28,0.68-0.48,0.96c-0.21,0.29-0.46,0.53-0.75,0.72
						c-0.29,0.2-0.62,0.33-0.98,0.4l2.62,4.13h-1.19l-2.52-3.95h-3.17v3.95H215.56z M216.62,230.49h3.5c0.31,0,0.6-0.07,0.85-0.2
						c0.26-0.13,0.47-0.32,0.66-0.55s0.32-0.49,0.42-0.78c0.1-0.29,0.15-0.6,0.15-0.92s-0.06-0.63-0.17-0.93
						c-0.12-0.3-0.27-0.55-0.47-0.78c-0.2-0.22-0.43-0.4-0.69-0.53c-0.27-0.13-0.54-0.2-0.84-0.2h-3.41V230.49z"/>
				</g>
			</g>
		</g>
		<g class="st1">
			<g>
				<defs>
					<rect id="SVGID_7_" x="-253" y="109.26" width="756.72" height="106.08"/>
				</defs>
				<clipPath id="SVGID_8_">
					<use xlink:href="#SVGID_7_"  style="overflow:visible;"/>
				</clipPath>
				<g class="st4">
					<path class="st3" d="M79.93,191.68c0,0.49-0.41,0.69-1.23,0.58h-1.48h-2.38c-1.59,0-3.5,0-5.75,0h-4.6c-0.16,0-0.58,0-1.23,0
						s-1.26,0-1.81,0h-1.07c-0.77,0-1.15-0.17-1.15-0.5c0-0.27,0.64-0.44,1.92-0.5c1.62-0.05,2.43-0.55,2.43-1.49v-18.44
						c0-5.68-0.19-9.09-0.58-10.25c-0.55-1.6-1.93-2.4-4.14-2.4c-2.04,0-3.64,0.88-4.8,2.64c-0.5,0.72-0.77,1.51-0.83,2.39
						c-0.11,1.04-0.17,3.88-0.17,8.5v15.67c0,1.65,0.15,2.61,0.45,2.89c0.3,0.27,1.33,0.41,3.08,0.41c0.49,0,0.74,0.14,0.74,0.41
						c0,0.44-0.3,0.66-0.9,0.66c-0.55,0-0.99-0.03-1.31-0.08l-15.92-0.16c-0.49,0-0.74-0.16-0.74-0.49c0-0.33,0.66-0.49,1.97-0.49
						c0.99,0,1.56-0.14,1.72-0.41l0.16-0.82v-20.16c0-5.16-0.3-8.27-0.9-9.34c-0.6-1.07-1.83-1.6-3.69-1.6
						c-2.24,0-3.91,0.93-5.01,2.8c-0.38,0.72-0.62,1.44-0.7,2.19s-0.12,2.9-0.12,6.48v16.33c0,2.53,0.15,3.92,0.45,4.17
						c0.3,0.25,1.05,0.37,2.26,0.37h1.23c0.55,0,0.82,0.15,0.82,0.45c0,0.35-0.25,0.53-0.74,0.53c-0.71,0-1.37,0-1.97,0h-3.45
						c-4.38,0.07-6.7,0.11-6.98,0.15c-2.63,0.07-4.57,0.1-5.83,0.1h-1.15c-0.71,0-1.07-0.22-1.07-0.66c0-0.38,0.25-0.58,0.74-0.58
						l1.89,0.33c0.93,0.05,1.7-0.17,2.3-0.66c0.44-0.38,0.66-1.54,0.66-3.46v-13.62c0-7.65-0.11-11.74-0.33-12.3
						c-0.44-0.5-2.13-0.74-5.09-0.74c-0.77,0-1.15-0.19-1.15-0.57c0-0.44,0.36-0.66,1.07-0.66c5.47-0.11,10.34-1.31,14.61-3.61
						c0.49-0.27,0.85-0.41,1.07-0.41c0.27,0,0.41,0.22,0.41,0.66c0,0.82-0.03,1.51-0.08,2.05v3.45c2.51-4.1,6.22-6.16,11.14-6.16
						c5.52,0,8.77,2.24,9.75,6.73c1.25-2.41,2.78-4.14,4.59-5.17c1.8-1.04,4.18-1.56,7.13-1.56c6.94,0,10.41,3.85,10.41,11.54
						c0,0.17,0,0.58,0,1.24c0,0.66,0,1.21,0,1.65v17.4c0,1.76,0.07,2.83,0.21,3.22c0.14,0.38,0.59,0.61,1.35,0.66
						c1.09,0.11,2.08,0.16,2.96,0.16C79.66,191.19,79.93,191.36,79.93,191.68z"/>
					<path class="st3" d="M125.48,189.39c0,0.44-0.47,0.69-1.4,0.74c-4.98,0.16-8.43,0.42-10.34,0.78c-1.92,0.36-3.56,1-4.92,1.93
						c-0.33,0.22-0.63,0.33-0.9,0.33c-0.22,0-0.33-0.22-0.33-0.66c0-0.77,0-1.38,0-1.85c0-0.46,0-1.03,0-1.68
						c0-0.49-0.03-0.93-0.08-1.31c-3.42,3.67-7.14,5.5-11.16,5.5c-3.58,0-6.41-1.15-8.47-3.46c-1.3-1.43-1.95-4.06-1.95-7.9v-5.84
						c0-0.66,0-2.28,0-4.85c0-2.58,0-6.14,0-10.7c0-1.21-0.18-1.95-0.53-2.22c-0.35-0.27-1.33-0.44-2.95-0.49
						c-1.4-0.05-2.1-0.27-2.1-0.66c0-0.44,0.38-0.66,1.15-0.66h0.9c0.82,0,2.06,0.04,3.73,0.12c1.67,0.08,2.8,0.12,3.41,0.12
						c0.11,0,0.67-0.04,1.68-0.12c1.01-0.08,2.5-0.12,4.47-0.12h1.56v8.91c0,4.24-0.06,7.34-0.17,9.32
						c-0.11,1.98-0.16,2.83-0.16,2.56c0,5.77,0.37,9.38,1.11,10.8c0.74,1.43,1.9,2.14,3.49,2.14c1.81,0,3.5-1.01,5.09-3.04
						c0.49-0.6,0.78-1.22,0.86-1.85s0.12-2.18,0.12-4.65v-14.15c0-4-0.05-6.42-0.16-7.24c-0.11-1.04-0.78-1.56-2.02-1.56h-2.26
						c-0.75,0-1.13-0.22-1.13-0.66c0-0.33,1.47-0.49,4.41-0.49c2.56,0,6.62-0.03,12.17-0.08c0,2.08,0,5.42,0,10.01v16.66
						c0,2.57,0.05,4.09,0.16,4.55c0.11,0.47,0.52,0.78,1.23,0.94c0.49,0.11,1.97,0.16,4.43,0.16
						C125.13,188.73,125.48,188.95,125.48,189.39z"/>
					<path class="st3" d="M167.1,190.46c0,0.38-0.55,0.57-1.64,0.57h-3.69c-2.68-0.05-5.5,0.58-8.45,1.89
						c-0.33,0.11-0.52,0.16-0.58,0.16c-0.49,0-0.77-0.49-0.82-1.48c0-0.49-0.08-1.18-0.25-2.05c-2.19,2.35-5.09,3.53-8.7,3.53
						c-4.82,0-8.78-1.78-11.9-5.34c-3.12-3.56-4.68-8.07-4.68-13.54c0-5.58,1.59-10.08,4.76-13.5c3.17-3.42,7.36-5.13,12.56-5.13
						c3.39,0,6.16,1.26,8.29,3.78v-11.49c0-4.92-0.22-7.84-0.66-8.74c-0.44-0.9-1.89-1.33-4.35-1.27c-1.42,0-2.13-0.19-2.13-0.57
						s0.33-0.58,0.99-0.58c5.03,0,9.83-0.74,14.42-2.22c0.66-0.22,1.13-0.33,1.41-0.33c0.61,0,0.91,0.66,0.91,1.97v4.1v7.88v39.15
						c0,0.93,0.14,1.56,0.41,1.89c0.38,0.49,1.34,0.71,2.87,0.66C166.69,189.75,167.1,189.96,167.1,190.46z M152,183.07v-17.89
						c0-2.46-0.41-4.29-1.24-5.5c-1.05-1.53-2.5-2.3-4.38-2.3c-5.29,0-7.93,5.83-7.93,17.48c0,5.2,0.67,9.22,2.02,12.07
						c1.35,2.85,3.23,4.27,5.66,4.27c1.43,0,2.77-0.64,4.01-1.93C151.38,187.98,152,185.92,152,183.07z"/>
					<path class="st3" d="M199.68,161.65c0,1.59-0.47,2.89-1.4,3.9c-0.93,1.01-2.13,1.52-3.61,1.52c-2.96,0-4.43-1.37-4.43-4.1
						c0-0.93,0.36-1.86,1.07-2.79c0.16-0.22,0.25-0.41,0.25-0.58c0-0.49-0.35-0.74-1.05-0.74c-1.84,0-3.24,1.45-4.21,4.34
						c-0.54,1.64-0.81,5.65-0.81,12.03v5.98v7.21c0,1.47,0.74,2.27,2.22,2.37c0.88,0.06,1.92,0.08,3.12,0.08
						c0.6,0.06,0.9,0.25,0.9,0.58c0,0.44-0.25,0.66-0.74,0.66h-1.64c-0.49,0-2.87,0-7.14,0c0.22,0-1.01,0-3.69,0h-4.02h-3.12
						c-0.55,0-1.18,0-1.89,0c-0.6,0-0.9-0.18-0.9-0.53c0-0.36,0.38-0.53,1.15-0.53c2.24-0.05,3.6-0.29,4.06-0.69
						c0.46-0.41,0.7-1.62,0.7-3.64l-0.08-22.1c0-1.86-0.26-3.14-0.78-3.85c-0.52-0.71-1.68-1.15-3.49-1.31
						c-1.42-0.1-2.23-0.18-2.42-0.23c-0.19-0.05-0.29-0.23-0.29-0.54s0.22-0.46,0.66-0.46c0.49,0,0.96,0,1.4,0h1.64
						c4.21,0,8.75-0.87,13.63-2.63c0.27,1.09,0.41,2.35,0.41,3.78v3.45c1.04-2.65,2.17-4.52,3.41-5.6c1.23-1.08,2.83-1.62,4.8-1.62
						c1.86,0,3.38,0.57,4.56,1.72C199.09,158.45,199.68,159.9,199.68,161.65z"/>
					<path class="st3" d="M238.18,187.67c0,0.45-0.44,1.06-1.31,1.83c-2.35,2.17-5.25,3.25-8.7,3.25c-2.24,0-3.87-0.47-4.88-1.41
						c-1.01-0.94-1.68-2.63-2.01-5.07c-2.46,4.49-5.83,6.73-10.1,6.73c-2.35,0-4.26-0.74-5.71-2.22c-1.45-1.48-2.17-3.39-2.17-5.75
						c0-6.89,5.91-10.97,17.73-12.23v-1.72c0-5.47-0.19-8.84-0.58-10.1l-0.08-0.41c-0.77-2.74-2.71-4.1-5.83-4.1
						c-1.81,0-3.26,0.52-4.35,1.56c-1.09,1.04-1.64,2.05-1.64,3.04c0,0.55,0.66,0.88,1.97,0.99c1.97,0.16,2.96,1.37,2.96,3.61
						c0,1.2-0.4,2.2-1.19,3c-0.79,0.79-1.82,1.19-3.08,1.19c-1.59,0-2.89-0.48-3.9-1.44c-1.01-0.96-1.52-2.18-1.52-3.65
						c0-2.35,1.18-4.49,3.53-6.4c2.35-1.92,5.44-2.87,9.28-2.87c5.69,0,9.66,1.01,11.9,3.04c1.81,1.7,2.71,4.65,2.71,8.86v14.04
						c0,2.74,0.03,4.32,0.08,4.76c0.27,2.3,1.07,3.45,2.38,3.45c0.93,0,2.08-0.66,3.45-1.97c0.27-0.27,0.49-0.41,0.66-0.41
						C238.04,187.25,238.18,187.39,238.18,187.67z M221.02,177.9v-4.02c-5.31,1.04-7.96,4.05-7.96,9.03c0,3.83,1.31,5.75,3.94,5.75
						c1.48,0,2.52-0.82,3.12-2.46C220.72,184.55,221.02,181.78,221.02,177.9z"/>
				</g>
			</g>
		</g>
		<g class="st5">
			<g>
				<defs>
					<rect id="SVGID_9_" x="89.72" y="12.05" width="59.29" height="121.21"/>
				</defs>
				<clipPath id="SVGID_10_">
					<use xlink:href="#SVGID_9_"  style="overflow:visible;"/>
				</clipPath>
				<path class="st6" d="M109.24,79.16l0.57,0.27c1.11-0.75,1.67-1.92,1.95-3.19c0.09-0.4-0.34-0.9-0.52-1.35
					c-0.19,0-0.38,0.01-0.57,0.01C110.19,76.32,109.72,77.74,109.24,79.16 M129.3,111.26c-1.66,0.17-3.22,0.34-5,0.52
					c0.28,0.55,0.45,0.9,0.59,1.18C127.4,113.26,129.34,112.53,129.3,111.26 M139.58,60.55c0.84,0.97,1.56,1.79,2.41,2.77
					c0.52-0.55,0.92-0.97,1.38-1.46c-0.79-0.87-1.5-1.64-2.24-2.45C140.59,59.8,140.16,60.12,139.58,60.55 M137.07,60.71
					c1.46,1.71,2.82,3.29,4.34,5.07C141.72,63.46,139.3,60.74,137.07,60.71 M107.54,50.63c-0.09,0.11-0.17,0.22-0.26,0.33
					c0.22,0.3,0.39,0.81,0.66,0.86c1.35,0.26,2.73,0.39,4.19,0.58c0.13-0.64,0.2-0.99,0.28-1.37
					C110.76,49.8,109.11,50.87,107.54,50.63 M127.56,58.67c-2.92,0.03-5.89,0.07-8.68-1.56c0.28,1.38,0.52,2.53,0.76,3.69
					c0.06-0.07,0.12-0.14,0.18-0.21c0.42,0.59,0.85,1.18,1.21,1.69C123.27,61.05,125.39,59.87,127.56,58.67 M128.6,34.61
					c-0.23,1.14-0.46,2.01-0.57,2.89c-0.27,2.26-0.12,4.38,1.99,5.87c0.33,0.23,0.41,0.82,0.59,1.25c0.54,1.28,1.08,2.57,1.68,3.99
					c2.31-3.1,2.72-8.2,2.01-8.96c-0.35-0.03-0.69-0.06-1.18-0.1c0.22-0.45,0.36-0.73,0.53-1.06c-0.27-0.34-0.53-0.66-0.77-0.97
					C130.87,38.09,130.63,37.93,128.6,34.61 M114.94,66.92c1.89-1.44,3.55-2.69,5.6-4.25c-0.81-0.52-1.42-0.93-2.04-1.32
					c0.09-0.06,0.19-0.11,0.28-0.17c-0.31-1.35-0.62-2.7-0.9-3.97c-2.31-0.13-4.31-0.25-6.43-0.37c0.09,2.02,0.73,3.77,1.93,5.37
					c0.46,0.61,0.68,1.42,0.92,2.16C114.55,65.15,114.7,65.97,114.94,66.92 M134.87,53.55c1.15,1.25,2.31,2.51,3.42,3.72
					c0.49-0.19,0.84-0.32,1.35-0.51c0.94,0.92,1.88,1.84,2.89,2.83c-0.43-2.98-0.45-5.91-1.36-8.53c-0.92-2.63-2.73-4.94-4.17-7.43
					c-0.88,2.35-1.69,4.49-2.49,6.62C134.61,51.23,134.73,52.32,134.87,53.55 M125.89,78.55c-1.41-1.06-2.81-2.1-4.05-3.04
					c-0.78,1.22-1.52,2.38-2.6,4.09c-0.26,0.73-0.69,2.12-1.23,3.48c-0.26,0.67-0.94,1.23-1.02,1.9c-0.23,1.74-0.41,3.53-0.27,5.27
					c0.11,1.29,0.76,2.53,1.17,3.8c0.12-0.02,0.25-0.05,0.37-0.07c0.57-2.68,1.92-4.93,3.54-7.1
					C123.65,84.38,125.18,81.68,125.89,78.55 M127.95,69.36c-1.82-0.79-3.47-1.51-5.14-2.21c-1.21-0.51-2.36-0.31-3.15,0.72
					c-1.17,1.53-2.41,3.06-3.27,4.77c-1.19,2.34-1.66,4.93-1.77,7.24c0.66,0.81,1.26,1.3,1.52,1.93c0.25,0.59,0.17,1.33,0.24,2.08
					c1.54-1.61,1.9-3.6,2.11-5.51c2.46-1.78,2.59-2.37,1.34-5.11c-0.13-0.28-0.11-0.63-0.16-0.95c0.11-0.05,0.22-0.11,0.33-0.16
					c1.38,1.4,2.76,2.8,4.12,4.17C126.5,74.43,127.53,72.15,127.95,69.36 M133.36,64.31c-2.13-1.59-4.11-3.06-6.06-4.52
					c-0.64,0.26-1.12,0.36-1.5,0.61c-3.08,2.04-6.24,3.98-9.18,6.21c-2.44,1.85-4.37,4.23-5.31,7.31c2.33,1.44,1.03,3.14,0.42,4.99
					c0.79-0.43,1.58-0.86,2.3-1.25c1.01-4.88,2.71-9.18,7.2-12.02c2.88,1.16,5.74,2.32,8.68,3.5
					C131.92,68.22,132.35,66.19,133.36,64.31 M133.72,63.46c1.05-0.53,2.11-1.06,3.2-1.6c-0.48-0.79-0.79-1.29-1.17-1.91
					c0.74-0.64,1.4-1.22,2.17-1.88c-2.07-2.28-3.75-4.85-7.11-5.43c-3.34-0.57-6.63-1.51-9.99-1.94c-2.44-0.31-4.96-0.06-7.43-0.06
					c-0.28,2.15-0.98,2.68-3.08,2.38c-0.76-0.11-1.53-0.19-2.59-0.32c1.31,1.69,2.57,2.89,4.36,3.15c1.78,0.26,3.6,0.21,5.39,0.37
					c0.83,0.07,1.65,0.3,2.47,0.47c1.62,0.34,3.23,0.78,4.87,1.01c1.16,0.16,2.37,0.03,3.48,0.03
					C129.14,60.8,131.65,61.79,133.72,63.46 M126.7,79.06c-0.32,0.82-0.52,1.63-0.93,2.33c-1.53,2.64-3.09,5.26-4.7,7.85
					c-1.73,2.77-2.72,5.69-1.8,8.95c0.93,3.31,1.98,6.58,2.99,9.87c0.06,0.2,0.19,0.38,0.33,0.66h3.48c0.26,0.68,0.49,1.27,0.76,2
					c0.41-0.1,0.79-0.18,1.16-0.27c-0.09-0.61-0.16-1.07-0.26-1.72c1.85-0.54,3.68-1.08,5.6-1.64c0.35,0.56,0.65,1.06,0.99,1.61
					c0.3-0.1,0.57-0.19,0.9-0.3c-0.14-0.41-0.26-0.76-0.4-1.21c1.25-1.05,2.48-2.09,3.73-3.14c0.71,0.42,1.33,0.79,1.95,1.16
					c0.08-0.11,0.15-0.22,0.23-0.33c-0.5-0.61-0.99-1.22-1.53-1.88c0.45-0.42,0.82-0.76,1.22-1.13c-0.21-0.32-0.41-0.59-0.59-0.88
					c-2.32-3.65-3.42-7.41-1.25-11.56c1.42-2.7,2.75-5.45,4.16-8.16c1.56-3,3.17-5.98,4.75-8.95c-1.36-2.44-2.59-4.63-3.86-6.89
					c-0.71,0.55-1.21,0.94-1.72,1.33c-0.43-0.11-0.79-0.21-1.02-0.27c-1.35,0.79-2.58,1.52-3.89,2.29c-0.57-0.8-1.1-1.53-1.58-2.21
					c-1.11,1.38-2.12,2.64-3.14,3.91c0.17,0.3,0.41,0.72,0.77,1.36c-0.72-0.12-1.11-0.19-1.54-0.27c-0.56,2.71-1.57,5.08-3.9,6.66
					c0.46,0.39,0.77,0.64,1.08,0.9c-0.04,0.13-0.08,0.26-0.12,0.38C127.99,79.37,127.4,79.23,126.7,79.06 M109.53,49.61
					c0.52-1.41-0.25-2.97,1.04-4.11c1.88,0.75,1.96,2.99,3.64,4.2c6.5-0.52,12.93,1.35,19.5,2.89v-1.43
					c-1.85-1.78-3.26-3.91-3.96-6.48c-0.1-0.35-0.33-0.73-0.61-0.96c-2.18-1.81-2.26-4.21-1.95-6.73c0.03-0.21,0.08-0.42,0.14-0.63
					c0.65-2.06,0.75-4.09-0.13-6.13c-0.13-0.31-0.02-0.72-0.02-1.07c1.05-0.39,1.48,0.31,1.87,0.89c1.74,2.61,3.44,5.25,5.14,7.89
					c2.23,3.48,4.44,6.98,6.66,10.46c0.32,0.51,0.67,1,1.05,1.56c0.33,2.25,0.64,4.59,1.02,6.92c0.37,2.29,0.78,4.58,2.52,6.33
					c-0.35,0.61-0.63,1.08-0.98,1.69c0.88,1.61,1.69,3.32,2.71,4.89c1,1.54,1.09,2.89,0.17,4.53c-2.26,4-4.45,8.05-6.49,12.17
					c-1.04,2.1-1.92,4.34-2.44,6.62c-0.71,3.11,1.1,5.59,2.63,8.18c0.45-0.23,0.78-0.39,1.31-0.65c0.35,0.43,0.71,0.9,1.21,1.51
					c-0.23,0.44-0.51,1-0.92,1.81c0.24,0.19,0.59,0.48,0.98,0.8c0.54-0.44,1.02-0.84,1.67-1.38c0.55,0.6,1.05,1.15,1.7,1.87
					c-0.89,1-1.69,1.91-2.54,2.87c-0.64-0.36-1.16-0.65-1.74-0.97c-0.21,0.22-0.43,0.46-0.65,0.68c0.31,0.6,0.58,1.13,0.98,1.9
					c-1.46,0.99-2.88,1.96-4.35,2.95c-0.57-0.71-0.96-1.21-1.42-1.79c-0.66,0.33-1.3,0.64-1.93,0.95c0.12,0.69,0.23,1.26,0.39,2.15
					c-2.07,0.44-4.02,0.86-5.94,1.28c-0.37-0.75-0.6-1.24-0.9-1.83c-0.68,0.13-1.29,0.25-1.96,0.37c0.04,0.65,0.07,1.22,0.11,1.84
					c-1.62,0.21-3.1,0.39-4.83,0.61c-0.36-0.82-0.76-1.73-1.27-2.89c1.01-0.27,1.8-0.49,2.67-0.73v-0.91
					c-0.91,0.06-1.74,0.12-2.59,0.18c-0.6-1.19-0.31-2.14,0.62-3.24c-0.86-2.85-1.78-5.85-2.67-8.85c-0.28-0.94-0.47-1.92-0.76-2.86
					c-0.21-0.69-0.44-1.39-0.8-2c-1.52-2.55-2.01-5.28-1.59-8.2c0.07-0.46,0.1-0.92,0.19-1.75c-0.74,1.46-1.3,2.59-1.87,3.72
					c-0.16-0.05-0.32-0.09-0.48-0.14c-0.66-1.52-0.16-3.1-0.09-4.66c0.07-1.62,0.02-3.26,0.02-4.8c-2.78,0.12-4.02,2.76-5.99,4.37
					c-1.07-2.1,2.49-10.58,6.45-15.76c-0.25-1.45-0.49-2.84-0.75-4.22c-0.04-0.2-0.16-0.4-0.3-0.55c-1.7-1.87-2.36-4.15-2.55-6.25
					c-1.52-1.51-2.85-2.82-4.55-4.5c-0.7-0.3-1.94-0.82-3.17-1.35c0.03-0.17,0.05-0.33,0.08-0.5
					C104.91,49.3,107.28,49.95,109.53,49.61"/>
				<path class="st6" d="M106.7,72.19c0.73-0.77,1.42-1.5,2.12-2.24c-0.4-0.32-1.06-0.84-1.7-1.34c-0.73,0.61-1.39,1.17-1.99,1.68
					C105.69,70.97,106.23,71.63,106.7,72.19 M111.36,70.03c-2.17,0.98-4.03,2.1-4.43,4.73c-0.88-2.09-1.75-4-4.21-4.7
					c2.1-0.42,3.82-1.02,4.03-3.68c0.8,1,1.25,1.8,1.92,2.33C109.34,69.24,110.24,69.5,111.36,70.03"/>
				<path class="st6" d="M125.58,49.69c-0.75-0.87-1.46-1.69-2.1-2.44c0.69-0.79,1.45-1.67,2.23-2.56c0.72,0.84,1.51,1.77,2.39,2.8
					c-0.47,0.21-1.08,0.36-1.5,0.72C126.17,48.57,125.93,49.14,125.58,49.69"/>
			</g>
		</g>
		<g class="st1">
			<g>
				<defs>
					<rect id="SVGID_11_" x="195" y="140.05" width="45" height="9"/>
				</defs>
				<clipPath id="SVGID_12_">
					<use xlink:href="#SVGID_11_"  style="overflow:visible;"/>
				</clipPath>
				<rect x="204" y="147.05" class="st7" width="27" height="1"/>
			</g>
		</g>
	</g>
</g>
</svg>
