<?xml version="1.0" encoding="utf-8"?>
<!-- Generator: Adobe Illustrator 22.1.0, SVG Export Plug-In . SVG Version: 6.00 Build 0)  -->
<svg version="1.1"
	 id="Layer_1" xmlns:cc="http://creativecommons.org/ns#" xmlns:dc="http://purl.org/dc/elements/1.1/" xmlns:inkscape="http://www.inkscape.org/namespaces/inkscape" xmlns:rdf="http://www.w3.org/1999/02/22-rdf-syntax-ns#" xmlns:sodipodi="http://sodipodi.sourceforge.net/DTD/sodipodi-0.dtd" xmlns:svg="http://www.w3.org/2000/svg"
	 xmlns="http://www.w3.org/2000/svg" xmlns:xlink="http://www.w3.org/1999/xlink" x="0px" y="0px" viewBox="0 0 100 125"
	 style="enable-background:new 0 0 100 125;" xml:space="preserve">
<style type="text/css">
	.st0{fill:none;stroke:#C79081;stroke-width:9.0017;stroke-linecap:round;}
	.st1{fill:none;stroke:#C79081;stroke-width:6;stroke-linecap:round;stroke-linejoin:round;}
	.st2{fill:#C79081;}
</style>
<g transform="translate(-271.00002,-2736.0049)">
	<path class="st0" d="M355.3,2806.8c-9.3,20.1-33,28.8-53.1,19.6c-20.1-9.3-28.8-33-19.6-53.1c9.3-20.1,33-28.8,53.1-19.6
		c15.2,7,24.2,24.5,23.2,38"/>
	<path class="st1" d="M351,2785l8,10l8-10"/>
</g>
<path class="st2" d="M37,39.3h1.7c0.1,0,0.3,0,0.4,0c0.1,0,0.3,0,0.4,0.1h0.2c0.1,0,0.3,0.1,0.4,0.1s0.2,0.1,0.3,0.2
	c0.1,0.2,0.2,0.5,0.2,0.8c0,0.3,0,0.7,0,1.1v4.1v16.1v5.6c0,0.4,0,0.8,0,1.3c0,0.5-0.1,0.8-0.2,1c-0.1,0.1-0.3,0.2-0.4,0.3
	c-0.2,0-0.4,0.1-0.6,0.2h-1.1h-1.8c-0.1,0-0.3,0-0.5,0s-0.3,0-0.5,0h-0.2c-0.1-0.1-0.3-0.1-0.4-0.2c-0.1,0-0.2-0.1-0.3-0.2
	c-0.1-0.2-0.2-0.4-0.2-0.7s0-0.6,0-0.9v-3.3v-9.4v-2.8c0-0.2,0-0.5,0-0.8c0-0.3,0-0.6-0.1-0.8c-0.1-0.5-0.4-0.8-0.8-0.8
	c-0.4,0-0.9-0.1-1.5-0.1h-3.2c-0.4,0-0.8,0-1.2,0s-0.7-0.2-0.8-0.4C27,49.5,27,49.4,27,49.3c0-0.1,0-0.2,0-0.4
	c-0.1-0.1-0.1-0.3-0.1-0.5c0-0.2,0-0.3,0-0.5c0-0.4,0-0.8,0-1.2c0-0.4,0.1-0.7,0.2-1c0.1-0.2,0.4-0.3,0.6-0.4c0.3,0,0.6-0.1,0.9-0.1
	H29c0.2-0.1,0.4-0.1,0.6-0.1c0.2,0,0.4,0,0.5-0.1c0.4-0.1,0.7-0.2,1-0.3c0.3-0.1,0.6-0.2,0.9-0.4c0.7-0.3,1.3-0.7,1.7-1.1
	c0.5-0.5,0.9-1,1.3-1.6c0.2-0.3,0.3-0.7,0.5-1.2c0.1-0.5,0.4-0.8,0.6-1c0.1-0.1,0.3-0.2,0.5-0.2c0.1,0,0.1,0,0.2,0
	C36.9,39.3,37,39.3,37,39.3z"/>
<path class="st2" d="M68.7,53.4c0,0.2,0,0.4,0,0.6c0,0.2,0,0.4,0,0.6c0,0.1,0,0.3,0,0.4c0,0.1,0,0.3,0,0.4v0.7l-0.1,1.6
	c0,0.2-0.1,0.5-0.1,0.7c0,0.2,0,0.5-0.1,0.8c-0.1,0.5-0.3,1.1-0.3,1.6c-0.1,0.5-0.2,1.1-0.4,1.6c-0.6,1.8-1.3,3.3-2.3,4.6
	c-0.9,1.2-2.2,2.2-4,2.9c-0.4,0.1-0.8,0.2-1.2,0.3c-0.4,0.1-0.9,0.1-1.3,0.3c-0.2,0-0.4,0-0.6,0c-0.2,0-0.4,0-0.6,0
	c-0.1,0-0.2,0-0.4,0c-0.2,0-0.4,0-0.4-0.1h-0.4c-0.1,0-0.1,0-0.2,0s-0.2,0-0.2,0c-0.2-0.1-0.5-0.1-0.7-0.1c-0.2,0-0.5-0.1-0.7-0.1
	c-0.6-0.1-1.1-0.3-1.5-0.5c-0.5-0.2-0.9-0.4-1.3-0.7c-1.1-0.7-2-1.5-2.6-2.4c-0.6-0.9-1.2-2-1.7-3.2c-0.1-0.4-0.3-0.8-0.4-1.3
	c-0.1-0.4-0.2-0.9-0.4-1.3c-0.1-0.3-0.1-0.7-0.2-1c0-0.4-0.1-0.7-0.2-1.1c0-0.1,0-0.3,0-0.4c0-0.1,0-0.2-0.1-0.4c0-0.2,0-0.4,0-0.5
	c0-0.2,0-0.4,0-0.5c0-0.1,0-0.3,0-0.4c0-0.1,0-0.2,0-0.4c-0.1-0.2-0.1-0.5-0.1-0.8c0-0.3,0-0.6,0-0.8c0-0.2,0-0.4,0-0.6
	c0-0.2,0-0.4,0.1-0.6v-0.6c0.1-0.2,0.1-0.5,0-0.7c0-0.2,0-0.4,0-0.7V51c0.1-0.2,0.1-0.4,0.1-0.5c0-0.2,0-0.4,0.1-0.6
	c0.1-0.1,0.1-0.3,0.1-0.5c0-0.2,0-0.4,0.1-0.6c0.1-0.4,0.2-0.8,0.3-1.2c0.1-0.4,0.2-0.8,0.3-1.1c0.6-1.8,1.3-3.2,2.3-4.4
	c0.9-1.2,2.2-2.1,3.9-2.8c0.4-0.1,0.7-0.3,1.1-0.3c0.4-0.1,0.8-0.2,1.2-0.2c0.1,0,0.3,0,0.4,0c0.1,0,0.3,0,0.4,0c0.1,0,0.1,0,0.2,0
	c0.1,0,0.2,0,0.2,0c1.6,0,2.9,0.1,4.1,0.5c1.2,0.4,2.2,0.9,3,1.6c0.8,0.7,1.6,1.5,2.1,2.5c0.6,1,1,2,1.4,3.2c0.2,0.5,0.3,1,0.4,1.5
	c0.1,0.5,0.2,1.1,0.3,1.6c0.1,0.2,0.1,0.5,0.1,0.7c0,0.2,0,0.4,0.1,0.7c0.1,0.3,0.1,0.6,0.1,0.9c0,0.3,0,0.6,0.1,0.9V53.4z
	 M62.5,55.4c0-0.1,0-0.3,0-0.5c0-0.2,0-0.3,0-0.5s0-0.3,0-0.5c0-0.2,0-0.3,0-0.5v-0.4c0-0.2,0-0.4,0-0.6c0-0.2,0-0.4,0-0.5v-0.4
	c-0.1-0.3-0.1-0.6-0.1-0.9c0-0.3,0-0.6-0.1-0.9c-0.1-0.2-0.1-0.5-0.1-0.7s-0.1-0.5-0.1-0.7c-0.2-0.8-0.5-1.6-0.8-2.3
	c-0.3-0.7-0.8-1.3-1.4-1.7c-0.4-0.3-0.7-0.5-1.2-0.6s-1-0.2-1.6-0.2c-0.1,0.1-0.1,0.1-0.2,0c-0.1,0-0.2,0-0.2,0
	c-0.1,0.1-0.3,0.1-0.4,0.1c-0.1,0-0.3,0.1-0.4,0.1c-0.7,0.3-1.2,0.7-1.6,1.3c-0.4,0.6-0.7,1.2-1,1.8c-0.2,0.4-0.3,0.9-0.4,1.4
	c-0.1,0.5-0.2,1-0.3,1.6c0,0.2-0.1,0.5-0.1,0.7c0,0.2,0,0.5-0.1,0.7c0,0.2,0,0.5,0,0.7c0,0.3,0,0.5,0,0.7v0.5
	c-0.1,0.1-0.1,0.3-0.1,0.5c0,0.2,0,0.3,0,0.5s0,0.3,0,0.4c0,0.1,0,0.3,0,0.4c0,0.1,0,0.3,0,0.5c0,0.2,0,0.4,0,0.5V57
	c0.1,0.3,0.1,0.5,0.1,0.8c0,0.3,0,0.6,0.1,0.8V59c0.1,0.3,0.1,0.5,0.1,0.8c0,0.3,0.1,0.5,0.1,0.8c0.2,0.6,0.4,1.1,0.5,1.6
	c0.2,0.5,0.4,1,0.7,1.4c0.3,0.4,0.7,0.7,1,1c0.3,0.2,0.8,0.5,1.3,0.6c0.1,0.1,0.4,0.1,0.6,0.2c0.3,0,0.5,0,0.7,0
	c0.1-0.1,0.3-0.1,0.5-0.1s0.3,0,0.5-0.1c0.3-0.1,0.7-0.3,1-0.5c0.4-0.2,0.6-0.4,0.8-0.7c0.3-0.4,0.5-0.7,0.7-1.1
	c0.2-0.3,0.4-0.7,0.5-1.2c0.1-0.4,0.2-0.8,0.3-1.2c0.1-0.4,0.1-0.8,0.3-1.2c0-0.1,0-0.3,0-0.4c0-0.1,0-0.3,0-0.4
	c0.1-0.2,0.1-0.4,0.1-0.6c0-0.2,0-0.4,0.1-0.6c0-0.2,0-0.5,0-0.7c0-0.3,0-0.5,0-0.7V55.4z"/>
</svg>
